<svg xmlns="http://www.w3.org/2000/svg" width="20" height="20" viewBox="0 0 48 48">
  <path fill="#FFC107" d="M43.6,20.1H42V20H24v8h11.3c-1.6,4.6-6,8-11.3,8c-6.6,0-12-5.4-12-12s5.4-12,12-12c3.1,0,5.9,1.2,8,3.1l5.7-5.7C35,6.3,30,4,24,4C12.9,4,4,12.9,4,24s8.9,20,20,20s20-8.9,20-20C44,22.7,43.8,21.4,43.6,20.1z"/>
  <path fill="#FF3D00" d="M6.3,14.7l6.6,4.8C14.1,16,18.7,12,24,12c3.1,0,5.9,1.2,8,3.1l5.7-5.7C35,6.3,30,4,24,4C16,4,9,8.1,6.3,14.7z"/>
  <path fill="#4CAF50" d="M24,44c6,0,11.4-2.2,15.4-5.9l-7.1-5.8C29.9,34.7,27.1,36,24,36c-5.3,0-9.7-3.4-11.3-8H4.4C6.8,37.6,14.7,44,24,44z"/>
  <path fill="#1976D2" d="M43.6,20.1H42V20H24v8h11.3c-0.7,2-2,3.7-3.6,5l7.1,5.8C41.8,35.6,44,30.1,44,24C44,22.7,43.8,21.4,43.6,20.1z"/>
</svg>
